<?xml version="1.0" encoding="UTF-8" standalone="no"?>
<svg
   xmlns:dc="http://purl.org/dc/elements/1.1/"
   xmlns:cc="http://creativecommons.org/ns#"
   xmlns:rdf="http://www.w3.org/1999/02/22-rdf-syntax-ns#"
   xmlns:svg="http://www.w3.org/2000/svg"
   xmlns="http://www.w3.org/2000/svg"
   xmlns:sodipodi="http://sodipodi.sourceforge.net/DTD/sodipodi-0.dtd"
   xmlns:inkscape="http://www.inkscape.org/namespaces/inkscape"
   width="295.57739mm"
   height="120.19643mm"
   viewBox="0 0 295.57739 120.19642"
   version="1.1"
   id="svg8"
   inkscape:version="1.0.1 (3bc2e813f5, 2020-09-07)"
   sodipodi:docname="2023-04-21 - logo.svg">
  <defs
     id="defs2" />
  <sodipodi:namedview
     id="base"
     pagecolor="#ffffff"
     bordercolor="#666666"
     borderopacity="1.0"
     inkscape:pageopacity="0.0"
     inkscape:pageshadow="2"
     inkscape:zoom="0.7"
     inkscape:cx="580.96351"
     inkscape:cy="340.27702"
     inkscape:document-units="mm"
     inkscape:current-layer="layer1"
     inkscape:document-rotation="0"
     showgrid="false"
     inkscape:window-width="1718"
     inkscape:window-height="1368"
     inkscape:window-x="0"
     inkscape:window-y="0"
     inkscape:window-maximized="0" />
  <metadata
     id="metadata5">
    <rdf:RDF>
      <cc:Work
         rdf:about="">
        <dc:format>image/svg+xml</dc:format>
        <dc:type
           rdf:resource="http://purl.org/dc/dcmitype/StillImage" />
        <dc:title />
      </cc:Work>
    </rdf:RDF>
  </metadata>
  <g
     inkscape:label="Layer 1"
     inkscape:groupmode="layer"
     id="layer1"
     transform="translate(-21.185569,162.07619)">
    <path
       style="fill:#1e9273;fill-opacity:1;stroke-width:0.264583"
       d="M -21.525741,-84.666663 V -175.68334 H 157.99405 337.51384 V -84.666663 6.3500067 H 157.99405 -21.525741 Z m 174.095831,29.13724 c 0,-0.12733 -0.35719,-0.30295 -0.79375,-0.39026 -0.75351,-0.15071 -0.79375,-0.22506 -0.79375,-1.46696 v -1.3082 l 0.92194,0.25456 c 2.93699,0.81094 5.50551,-2.20466 4.38594,-5.14937 -0.63488,-1.66985 -2.71717,-2.2948 -4.52727,-1.35876 l -0.78061,0.40367 v -0.80054 c 0,-0.4403 -0.11906,-0.80055 -0.26458,-0.80055 -0.14552,0 -0.26458,0.11601 -0.26458,0.25779 0,0.14179 -0.35719,0.4425 -0.79375,0.66825 -0.84481,0.43687 -1.05446,0.92605 -0.39688,0.92605 0.33624,0 0.39688,0.64675 0.39688,4.23333 0,4.05694 -0.022,4.23333 -0.52917,4.23333 -0.29104,0 -0.52917,0.11906 -0.52917,0.26459 0,0.15287 0.83785,0.26458 1.98438,0.26458 1.0914,0 1.98437,-0.10418 1.98437,-0.23151 z m -0.74866,-3.62358 -0.83884,-0.3527 v -2.14294 -2.14294 l 0.91754,-0.38337 c 1.23849,-0.51747 1.57931,-0.48615 2.40103,0.22067 0.91222,0.78465 1.17134,2.63022 0.54056,3.85002 -0.23822,0.46068 -0.46063,0.8376 -0.49423,0.8376 -0.0336,0 -0.42698,0.10493 -0.87417,0.23318 -0.55742,0.15987 -1.07681,0.12229 -1.65189,-0.11952 z m 14.31278,3.39207 c 0.22933,-0.25466 1.09732,-2.28315 1.92886,-4.50775 0.9611,-2.57121 1.69164,-4.14093 2.00529,-4.30879 0.84038,-0.44976 0.55205,-0.64232 -0.96181,-0.64232 -1.44175,0 -1.9456,0.31818 -0.92604,0.5848 0.69637,0.1821 0.67002,0.62271 -0.1763,2.94791 l -0.70801,1.94521 -0.74133,-2.0775 c -0.89066,-2.496 -0.90331,-2.65642 -0.22645,-2.87125 1.00129,-0.3178 0.52571,-0.52917 -1.19062,-0.52917 -1.7546,0 -2.09708,0.17634 -1.23675,0.63677 0.28766,0.15395 0.94833,1.50143 1.63339,3.33135 0.93397,2.49485 1.10349,3.20692 0.90124,3.78569 -0.19038,0.54482 -0.45068,0.73241 -1.10422,0.79577 -0.61046,0.0592 -0.85512,0.2169 -0.85512,0.55121 0,0.92931 0.95727,1.13606 1.65787,0.35807 z m -78.882716,-0.33563 c 0.527738,-0.14658 1.271878,-0.57887 1.653645,-0.96064 0.687346,-0.68735 0.694119,-0.73281 0.694119,-4.65919 0,-3.34124 -0.05744,-3.91739 -0.36512,-3.66204 -0.231254,0.19192 -0.886052,0.24607 -1.785937,0.14768 -2.574129,-0.28144 -4.36226,1.38924 -4.108725,3.83884 0.2463,2.37973 2.919568,3.54122 4.503912,1.95688 l 0.697537,-0.69754 v 1.10644 c 0,1.44539 -0.890281,2.4053 -2.230832,2.4053 -0.702138,0 -1.038852,-0.16312 -1.365374,-0.66146 -0.238371,-0.3638 -0.602041,-0.66145 -0.808152,-0.66145 -0.595399,0 -0.729424,0.76647 -0.230436,1.31785 0.396711,0.43836 0.728086,0.55672 2.121252,0.75769 0.145521,0.021 0.69637,-0.0818 1.224111,-0.22836 z m -1.779815,-3.63034 c -1.009875,-0.69802 -1.209091,-3.04357 -0.351134,-4.13429 0.420756,-0.5349 0.782651,-0.69714 1.555104,-0.69714 1.222973,0 1.626111,0.43233 1.788864,1.91838 0.163039,1.48866 -0.752269,2.94316 -1.916409,3.04534 -0.431919,0.0379 -0.916307,-0.0216 -1.076425,-0.13229 z m -45.894419,0.84411 c 0.539176,-0.52524 0.208442,-0.72491 -0.594645,-0.35899 -1.299589,0.59213 -1.506273,0.24496 -1.506273,-2.53012 v -2.52184 h 1.058333 c 0.764352,0 1.058333,-0.11025 1.058333,-0.39688 0,-0.28663 -0.293981,-0.39687 -1.058333,-0.39687 -1.033134,0 -1.058333,-0.022 -1.058333,-0.92605 0,-0.50932 -0.119063,-0.92604 -0.264584,-0.92604 -0.14552,0 -0.264583,0.1943 -0.264583,0.43178 0,0.23748 -0.425196,0.83279 -0.94488,1.32292 -0.820261,0.7736 -0.872604,0.89114 -0.396875,0.89114 0.515829,0 0.548005,0.14758 0.548005,2.51354 0,2.19826 0.06949,2.58302 0.553961,3.0675 0.44577,0.44577 0.742897,0.51951 1.521354,0.37758 0.532067,-0.097 1.138899,-0.34346 1.34852,-0.54767 z m 20.851686,-0.0191 c 0.327422,-0.20735 0.595312,-0.4863 0.595312,-0.61988 0,-0.45311 -0.467677,-0.5347 -0.796168,-0.13889 -0.375769,0.45278 -1.90822,0.52284 -2.65807,0.12154 -1.902683,-1.01828 -1.491846,-5.28382 0.508915,-5.28382 0.410652,0 0.962142,0.23812 1.225532,0.52917 0.602892,0.66618 1.455208,0.69718 1.455208,0.0529 0,-0.8182 -0.579125,-1.11125 -2.196042,-1.11125 -1.415256,0 -1.643105,0.0821 -2.439757,0.87872 -1.45565,1.45565 -1.547559,3.36249 -0.237133,4.91984 1.104371,1.31247 3.056496,1.59254 4.542203,0.65166 z m 40.481254,0 c 0.32742,-0.20735 0.59531,-0.4863 0.59531,-0.61988 0,-0.45311 -0.46768,-0.5347 -0.79617,-0.13889 -0.37577,0.45278 -1.908221,0.52284 -2.658071,0.12154 -1.90268,-1.01828 -1.49184,-5.28382 0.50892,-5.28382 0.41065,0 0.96214,0.23812 1.22553,0.52917 0.602891,0.66618 1.455211,0.69718 1.455211,0.0529 0,-0.8182 -0.57913,-1.11125 -2.196051,-1.11125 -1.41525,0 -1.6431,0.0821 -2.43975,0.87872 -1.45565,1.45565 -1.54756,3.36249 -0.23714,4.91984 1.10437,1.31247 3.0565,1.59254 4.542211,0.65166 z m 29.36875,0 c 0.32742,-0.20735 0.59531,-0.4863 0.59531,-0.61988 0,-0.45311 -0.46768,-0.5347 -0.79617,-0.13889 -0.37577,0.45278 -1.90822,0.52284 -2.65807,0.12154 -1.90268,-1.01828 -1.49185,-5.28382 0.50892,-5.28382 0.41065,0 0.96214,0.23812 1.22553,0.52917 0.60289,0.66618 1.45521,0.69718 1.45521,0.0529 0,-0.8182 -0.57913,-1.11125 -2.19605,-1.11125 -1.41525,0 -1.6431,0.0821 -2.43975,0.87872 -1.45565,1.45565 -1.54756,3.36249 -0.23714,4.91984 1.10437,1.31247 3.0565,1.59254 4.54221,0.65166 z m 31.73196,0.0249 c 1.45688,-0.95458 0.88829,-2.69465 -1.21017,-3.70353 -1.32152,-0.63535 -1.67564,-1.10755 -1.32371,-1.76512 0.3682,-0.68799 1.431,-0.59211 2.04162,0.18418 0.67232,0.85472 0.84102,0.83386 0.84102,-0.10398 0,-0.8799 -0.36583,-1.08664 -1.92281,-1.08664 -0.75066,0 -1.2748,0.17757 -1.69815,0.57529 -1.18232,1.11073 -0.6745,2.32659 1.37752,3.29818 1.67664,0.79385 2.07796,1.54216 1.20583,2.24838 -0.74478,0.60308 -1.56362,0.3222 -2.26968,-0.77856 -0.60984,-0.95076 -0.92604,-1.06461 -0.92604,-0.33343 0,0.95226 0.49756,1.82813 1.11023,1.9544 0.87638,0.18062 2.07455,-0.0306 2.77434,-0.48916 z m 14.30554,-0.0249 c 0.32742,-0.20735 0.59531,-0.4863 0.59531,-0.61988 0,-0.45311 -0.46768,-0.5347 -0.79617,-0.13889 -0.37577,0.45278 -1.90822,0.52284 -2.65807,0.12154 -1.90268,-1.01828 -1.49185,-5.28382 0.50892,-5.28382 0.41065,0 0.96214,0.23812 1.22553,0.52917 0.60289,0.66618 1.4552,0.69718 1.4552,0.0529 0,-0.8182 -0.57912,-1.11125 -2.19604,-1.11125 -1.41525,0 -1.6431,0.0821 -2.43975,0.87872 -1.45565,1.45565 -1.54756,3.36249 -0.23714,4.91984 1.10437,1.31247 3.0565,1.59254 4.54221,0.65166 z m 15.5434,-0.0746 c 0.43609,-0.24812 0.83234,-0.65598 0.88055,-0.90634 0.0786,-0.40801 -0.0235,-0.39729 -0.98404,0.10339 -0.92995,0.48472 -1.19578,0.51766 -2.00964,0.24906 -1.01492,-0.33495 -1.72246,-1.36241 -1.72246,-2.50128 0,-0.66979 0.0159,-0.67459 2.23334,-0.67459 1.22834,0 2.30477,-0.11557 2.39206,-0.25682 0.0873,-0.14124 -0.026,-0.61397 -0.2517,-1.05049 -1.15515,-2.23381 -4.59178,-1.63558 -5.44434,0.94773 -1.1074,3.35544 1.85557,5.82508 4.90623,4.08935 z m -3.57101,-4.6016 c 0,-1.06219 1.95077,-1.63752 2.77104,-0.81725 0.69675,0.69676 0.3226,1.02272 -1.27059,1.10698 -1.14503,0.0605 -1.50045,-0.008 -1.50045,-0.28973 z m 10.3849,4.79645 c 0.35104,-0.18125 0.46302,-0.13283 0.46302,0.20019 0,0.35086 0.16639,0.40598 0.82682,0.27389 0.45475,-0.0909 0.99053,-0.16536 1.19063,-0.16536 0.55563,0 0.43297,-0.44936 -0.16537,-0.60583 -0.50703,-0.13259 -0.52917,-0.3609 -0.52917,-5.45795 v -5.31956 l -1.12447,0.16925 c -1.4608,0.21987 -1.79104,0.54132 -0.90299,0.87896 0.65963,0.25079 0.70457,0.37371 0.70491,1.92806 l 2.6e-4,1.66019 -1.4639,-0.0911 c -2.32229,-0.14455 -3.82548,1.27801 -3.8275,3.62217 -0.002,2.70402 2.40885,4.15598 4.82766,2.9071 z m -2.69132,-0.99354 c -1.61802,-1.61802 -0.63983,-5.04774 1.43966,-5.04774 1.41259,0 1.74909,0.65043 1.65976,3.20824 l -0.0774,2.21572 -1.24285,0.0801 c -0.96645,0.0623 -1.36212,-0.0392 -1.7792,-0.45629 z m 11.75243,0.7987 c 0.43609,-0.24812 0.83234,-0.65598 0.88055,-0.90635 0.0786,-0.40801 -0.0235,-0.39728 -0.98404,0.10339 -0.92995,0.48472 -1.19578,0.51767 -2.00964,0.24907 -1.01492,-0.33496 -1.72246,-1.36242 -1.72246,-2.50129 0,-0.66979 0.0159,-0.67459 2.23334,-0.67459 1.22834,0 2.30477,-0.11557 2.39206,-0.25682 0.0873,-0.14124 -0.026,-0.61397 -0.2517,-1.05049 -1.15515,-2.23381 -4.59178,-1.63558 -5.44434,0.94773 -1.1074,3.35544 1.85557,5.82508 4.90623,4.08935 z m -3.57101,-4.60161 c 0,-1.06219 1.95077,-1.63752 2.77104,-0.81725 0.69675,0.69676 0.3226,1.02272 -1.27059,1.10698 -1.14503,0.0605 -1.50045,-0.008 -1.50045,-0.28973 z m 20.04219,4.67622 c 0.32742,-0.20735 0.59531,-0.48629 0.59531,-0.61987 0,-0.45311 -0.46768,-0.5347 -0.79617,-0.13889 -0.37577,0.45277 -1.90822,0.52284 -2.65807,0.12153 -1.90268,-1.01828 -1.49184,-5.28382 0.50892,-5.28382 0.41065,0 0.96214,0.23812 1.22553,0.52917 0.60289,0.66618 1.45521,0.69718 1.45521,0.0529 0,-0.8182 -0.57913,-1.11125 -2.19604,-1.11125 -1.41526,0 -1.64311,0.0821 -2.43976,0.87872 -1.45565,1.45565 -1.54756,3.36249 -0.23713,4.91984 1.10437,1.31247 3.05649,1.59254 4.5422,0.65166 z m 5.53822,0.0249 c 1.45687,-0.95458 0.88828,-2.69465 -1.21018,-3.70352 -1.32152,-0.63535 -1.67563,-1.10755 -1.32371,-1.76513 0.3682,-0.68798 1.431,-0.59211 2.04163,0.18418 0.67231,0.85472 0.84102,0.83386 0.84102,-0.10398 0,-0.8799 -0.36584,-1.08664 -1.92282,-1.08664 -0.75065,0 -1.27479,0.17757 -1.69815,0.57529 -1.18232,1.11073 -0.6745,2.32659 1.37752,3.29818 1.67664,0.79385 2.07797,1.54216 1.20583,2.24838 -0.74478,0.60308 -1.56362,0.3222 -2.26967,-0.77856 -0.60985,-0.95076 -0.92605,-1.06461 -0.92605,-0.33343 0,0.95226 0.49756,1.82813 1.11023,1.9544 0.87639,0.18062 2.07455,-0.0306 2.77435,-0.48916 z m 55.39712,0.40427 c 2.84829,-0.79125 3.51314,-4.46422 1.14519,-6.32683 -0.99829,-0.78527 -3.15235,-0.76202 -4.35284,0.047 -2.77379,1.86925 -1.43515,6.22807 2.002,6.51889 0.14552,0.0123 0.68807,-0.0953 1.20565,-0.23905 z m -2.20292,-0.79317 c -1.3044,-1.02605 -1.47143,-3.76179 -0.30814,-5.0472 0.69207,-0.76476 2.24264,-0.68136 3.03615,0.16329 0.51697,0.5503 0.634,0.95941 0.64143,2.24234 0.008,1.33039 -0.0916,1.66844 -0.65238,2.22109 -0.96753,0.95349 -1.86323,1.0921 -2.71706,0.42048 z m 16.12662,0.3889 c 1.45687,-0.95458 0.88828,-2.69465 -1.21015,-3.70352 -1.32155,-0.63535 -1.67564,-1.10755 -1.32372,-1.76513 0.3682,-0.68798 1.431,-0.59211 2.04161,0.18418 0.67233,0.85472 0.84103,0.83386 0.84103,-0.10398 0,-0.8799 -0.36584,-1.08664 -1.92281,-1.08664 -0.75067,0 -1.27481,0.17756 -1.69814,0.57529 -1.18235,1.11073 -0.67451,2.32659 1.3775,3.29818 1.67663,0.79385 2.07798,1.54216 1.20583,2.24837 -0.74477,0.60309 -1.56363,0.32221 -2.26967,-0.77855 -0.60984,-0.95077 -0.92604,-1.06462 -0.92604,-0.33343 0,0.95225 0.49755,1.82813 1.11022,1.9544 0.87637,0.18061 2.07454,-0.0306 2.77434,-0.48917 z m -254.180395,0.17331 c 0,-0.12692 -0.47625,-0.30692 -1.058333,-0.4 l -1.058334,-0.16924 0.0084,-1.9151 c 0.01016,-2.31473 0.377222,-2.97282 1.518312,-2.7222 0.877115,0.19265 1.494517,-0.31602 1.227656,-1.01145 -0.235834,-0.61457 -1.418783,-0.53456 -2.142017,0.14488 l -0.612365,0.57529 v -0.83988 c 0,-0.87383 -0.43072,-1.13969 -0.701825,-0.4332 -0.08583,0.22366 -0.498809,0.5839 -0.917737,0.80054 -0.896572,0.46364 -0.970364,0.79318 -0.221467,0.98901 0.497597,0.13013 0.534131,0.31523 0.463021,2.34597 -0.07205,2.05765 -0.116906,2.21033 -0.672512,2.28924 -0.327422,0.0465 -0.595313,0.19533 -0.595313,0.33073 0,0.1354 1.071563,0.24618 2.38125,0.24618 1.309688,0 2.38125,-0.10385 2.38125,-0.23077 z m 6.214859,-0.40379 c 0.633754,-0.63375 0.634656,-0.63383 0.715576,-0.0661 0.1045,0.73311 1.143357,0.89881 1.816394,0.28972 0.5994,-0.54244 0.454636,-0.91617 -0.280427,-0.72395 -0.505613,0.13222 -0.528902,0.008 -0.528902,-2.83127 0,-2.72497 -0.03814,-2.95376 -0.463021,-2.77747 -0.528291,0.2192 -0.608721,0.21873 -2.050521,-0.0118 -3.027084,-0.48403 -5.097351,3.96658 -2.799963,6.01929 1.092671,0.9763 2.671508,1.02099 3.590864,0.10163 z m -2.441538,-0.56387 c -0.680217,-0.47644 -1.179275,-2.05736 -0.952958,-3.01878 0.346319,-1.47121 1.73614,-2.23524 3.108251,-1.70871 0.647771,0.24857 1.022731,2.02945 0.688578,3.2704 -0.443267,1.64617 -1.673799,2.27664 -2.843871,1.45709 z m 16.335012,0.9647 c 0,-0.12854 -0.238125,-0.29599 -0.529166,-0.3721 -0.441796,-0.11553 -0.529167,-0.3609 -0.529167,-1.48607 0,-1.71341 0.355864,-1.72159 1.653646,-0.038 1.145188,1.48562 1.178483,1.60073 0.463021,1.60073 -0.291042,0 -0.529167,0.11906 -0.529167,0.26459 0,0.16462 1.499306,0.26458 3.96875,0.26458 3.678819,0 4.90578,-0.23662 3.307291,-0.63782 -0.657852,-0.16511 -0.661458,-0.18269 -0.661458,-3.22573 0,-1.68284 -0.0893,-3.01714 -0.198437,-2.9651 -0.109141,0.052 -0.584637,0.32985 -1.056662,0.61736 -0.907904,0.55301 -1.104444,0.91962 -0.493,0.91962 0.52587,0 0.689766,0.60018 0.689766,2.52587 0,1.87044 -0.297056,2.23663 -1.814338,2.23663 -0.833461,0 -1.643962,-0.66508 -3.191227,-2.61866 l -0.831014,-1.04924 1.236546,-0.94417 c 0.680098,-0.5193 1.457547,-0.94418 1.727663,-0.94418 0.270116,0 0.49112,-0.11906 0.49112,-0.26458 0,-0.14925 -0.749652,-0.26458 -1.719792,-0.26458 -1.690309,0 -2.280557,0.3208 -1.139338,0.61924 0.540665,0.14138 0.55095,0.18431 0.150043,0.62617 -0.236728,0.26091 -0.795587,0.68947 -1.241912,0.95236 l -0.811501,0.47798 v -3.71913 c 0,-2.04552 -0.0893,-3.7103 -0.198438,-3.6995 -0.10914,0.0108 -0.674687,0.24153 -1.25677,0.51275 -0.972709,0.45324 -1.010169,0.50767 -0.463021,0.6727 0.588475,0.1775 0.595312,0.23391 0.595312,4.9112 0,4.55525 -0.01974,4.73164 -0.529166,4.73164 -0.291042,0 -0.529167,0.11906 -0.529167,0.26459 0,0.14925 0.749652,0.26458 1.719792,0.26458 0.945885,0 1.719791,-0.10518 1.719791,-0.23373 z m 12.964583,-0.01 c 0,-0.13396 -0.357187,-0.32201 -0.79375,-0.4179 l -0.79375,-0.17433 v -2.05464 c 0,-2.28252 0.289545,-2.78987 1.75999,-3.08396 1.336395,-0.26728 1.679594,0.34069 1.679594,2.97535 0,2.03232 -0.05222,2.26849 -0.529167,2.39321 -1.095081,0.28637 -0.467254,0.60583 1.190625,0.60583 1.657879,0 2.285706,-0.31946 1.190625,-0.60583 -0.482777,-0.12625 -0.529167,-0.36089 -0.529167,-2.67669 0,-2.18554 -0.07354,-2.61186 -0.529166,-3.06748 -0.689936,-0.68993 -2.244426,-0.69127 -3.373438,-0.003 l -0.859896,0.52429 v -0.81784 -0.81785 l -0.767611,0.82173 c -0.422188,0.45196 -0.898438,0.82174 -1.058334,0.82174 -0.494622,0 -0.320079,0.48419 0.238445,0.66146 0.47044,0.14931 0.529167,0.40032 0.529167,2.26174 0,2.01273 -0.02561,2.10023 -0.661458,2.25982 -1.287804,0.32321 -0.635286,0.63781 1.322916,0.63781 1.091407,0 1.984375,-0.1096 1.984375,-0.24356 z m 28.045839,0.008 c 0,-0.12974 -0.29766,-0.3106 -0.66146,-0.40191 l -0.66146,-0.16602 v -5.28662 c 0,-2.90765 -0.0755,-5.28663 -0.16774,-5.28663 -0.41192,0 -2.21351,0.62906 -2.21351,0.77289 0,0.088 0.26789,0.27749 0.59531,0.42114 0.5798,0.25437 0.5972,0.37956 0.66761,4.80286 l 0.0723,4.54169 -0.7999,0.17569 c -1.44972,0.31841 -0.83426,0.66281 1.18447,0.66281 1.09141,0 1.98438,-0.10616 1.98438,-0.2359 z m 4.49791,0 c 0,-0.12974 -0.29765,-0.3106 -0.66146,-0.40191 -0.65785,-0.16511 -0.66145,-0.1827 -0.66145,-3.22573 0,-1.68285 -0.0893,-3.01714 -0.19844,-2.9651 -0.10914,0.052 -0.58464,0.32985 -1.05666,0.61736 -0.90791,0.553 -1.10445,0.91962 -0.493,0.91962 0.52773,0 0.68976,0.60092 0.68976,2.55816 0,1.66941 -0.0239,1.73014 -0.79375,2.02074 -1.29363,0.48829 -0.91866,0.71276 1.19063,0.71276 1.0914,0 1.98437,-0.10615 1.98437,-0.2359 z m 4.49792,-0.008 c 0,-0.13396 -0.35719,-0.32201 -0.79375,-0.4179 l -0.79375,-0.17433 v -2.05464 c 0,-2.28252 0.28954,-2.78987 1.75999,-3.08396 1.33639,-0.26728 1.67959,0.34069 1.67959,2.97535 0,2.03232 -0.0522,2.26849 -0.52916,2.39321 -1.09509,0.28637 -0.46726,0.60583 1.19062,0.60583 1.65788,0 2.28571,-0.31946 1.19063,-0.60583 -0.48278,-0.12625 -0.52917,-0.36089 -0.52917,-2.67669 0,-2.18554 -0.0735,-2.61186 -0.52917,-3.06748 -0.68993,-0.68993 -2.24442,-0.69127 -3.37344,-0.003 l -0.85989,0.52429 v -0.81784 -0.81785 l -0.76761,0.82173 c -0.42219,0.45196 -0.89844,0.82174 -1.05834,0.82174 -0.49462,0 -0.32008,0.48419 0.23845,0.66146 0.47044,0.14931 0.52917,0.40032 0.52917,2.26174 0,2.01273 -0.0256,2.10023 -0.66146,2.25982 -1.28781,0.32321 -0.63529,0.63781 1.32291,0.63781 1.09141,0 1.98438,-0.1096 1.98438,-0.24356 z m 8.99583,0.008 c 0,-0.12974 -0.29765,-0.3106 -0.66146,-0.40191 -0.65785,-0.16511 -0.66145,-0.1827 -0.66145,-3.22573 0,-1.68285 -0.0893,-3.01714 -0.19844,-2.9651 -0.10914,0.052 -0.58464,0.32985 -1.05666,0.61736 -0.90791,0.553 -1.10445,0.91962 -0.493,0.91962 0.52773,0 0.68976,0.60092 0.68976,2.55816 0,1.66941 -0.0239,1.73014 -0.79375,2.02074 -1.29363,0.48829 -0.91866,0.71276 1.19063,0.71276 1.0914,0 1.98437,-0.10615 1.98437,-0.2359 z m 12.30028,-0.39865 c 0.63375,-0.63376 0.63465,-0.63384 0.71557,-0.0661 0.1045,0.73312 1.14336,0.89882 1.8164,0.28973 0.5994,-0.54245 0.45463,-0.91618 -0.28043,-0.72395 -0.50561,0.13222 -0.5289,0.008 -0.5289,-2.83128 0,-2.72497 -0.0381,-2.95375 -0.46302,-2.77746 -0.52829,0.21919 -0.60872,0.21873 -2.05052,-0.0118 -3.02709,-0.48404 -5.09735,3.96657 -2.79997,6.01929 1.09267,0.9763 2.67151,1.02098 3.59087,0.10163 z m -2.44154,-0.56406 c -0.68022,-0.47644 -1.17927,-2.05736 -0.95296,-3.01879 0.34632,-1.4712 1.73614,-2.23523 3.10825,-1.70871 0.64777,0.24858 1.02273,2.02945 0.68858,3.2704 -0.44327,1.64617 -1.6738,2.27665 -2.84387,1.4571 z m 9.98501,0.96252 c 0,-0.12975 -0.29765,-0.31061 -0.66146,-0.40192 l -0.66145,-0.16601 v -5.28663 c 0,-2.90764 -0.0755,-5.28662 -0.16775,-5.28662 -0.41191,0 -2.2135,0.62906 -2.2135,0.77289 0,0.088 0.26789,0.27749 0.59531,0.42114 0.57979,0.25437 0.59719,0.37956 0.66761,4.80286 l 0.0723,4.54169 -0.7999,0.17569 c -1.44971,0.31841 -0.83425,0.66281 1.18448,0.66281 1.0914,0 1.98437,-0.10616 1.98437,-0.2359 z m 37.57083,0.0293 c 0,-0.11361 -0.35718,-0.3414 -0.79375,-0.50618 -0.77778,-0.29358 -0.79375,-0.33685 -0.79375,-2.15115 0,-1.74273 0.0478,-1.89181 0.81406,-2.53653 0.92026,-0.77435 1.49924,-0.85418 2.24423,-0.30944 0.42387,0.30994 0.5298,0.7701 0.6064,2.6341 0.0922,2.24352 0.0882,2.25971 -0.59531,2.43127 -1.24775,0.31317 -0.71737,0.64451 1.03167,0.64451 1.67527,0 2.25679,-0.32307 1.19062,-0.66146 -0.47634,-0.15118 -0.52917,-0.40032 -0.52917,-2.49569 0,-1.95428 -0.088,-2.43959 -0.54837,-3.02488 -0.75515,-0.96002 -2.26718,-0.96543 -3.40007,-0.0122 l -0.81406,0.68498 v -2.95176 c 0,-3.28769 0.14415,-3.10712 -1.85208,-2.32008 l -0.66146,0.26079 0.72761,0.2551 0.7276,0.25509 v 4.60312 4.60312 l -0.66146,0.16602 c -1.2878,0.32321 -0.63528,0.63781 1.32292,0.63781 1.09141,0 1.98437,-0.093 1.98437,-0.20658 z m 32.01459,-0.0293 c 0,-0.12975 -0.29766,-0.31061 -0.66146,-0.40192 l -0.66146,-0.16601 v -5.28663 c 0,-2.90764 -0.0755,-5.28662 -0.16774,-5.28662 -0.41192,0 -2.21351,0.62906 -2.21351,0.77289 0,0.088 0.26789,0.27749 0.59531,0.42114 0.5798,0.25437 0.5972,0.37956 0.66761,4.80286 l 0.0723,4.54169 -0.7999,0.17569 c -1.44971,0.31841 -0.83426,0.66281 1.18447,0.66281 1.09141,0 1.98438,-0.10616 1.98438,-0.2359 z m 4.49791,0 c 0,-0.12975 -0.29765,-0.31061 -0.66145,-0.40192 -0.65786,-0.16511 -0.66146,-0.18269 -0.66146,-3.22573 0,-1.68284 -0.0893,-3.01714 -0.19844,-2.9651 -0.10914,0.052 -0.58464,0.32985 -1.05666,0.61736 -0.90791,0.55301 -1.10445,0.91962 -0.493,0.91962 0.52774,0 0.68976,0.60092 0.68976,2.55817 0,1.6694 -0.0239,1.73014 -0.79375,2.02074 -1.29363,0.48829 -0.91866,0.71276 1.19063,0.71276 1.09141,0 1.98437,-0.10616 1.98437,-0.2359 z m 21.69584,0 c 0,-0.12975 -0.29766,-0.31061 -0.66146,-0.40192 -0.65785,-0.16511 -0.66146,-0.18269 -0.66146,-3.22573 0,-1.68284 -0.0893,-3.01714 -0.19844,-2.9651 -0.10914,0.052 -0.58463,0.32985 -1.05666,0.61736 -0.9079,0.55301 -1.10444,0.91962 -0.493,0.91962 0.52774,0 0.68977,0.60092 0.68977,2.55817 0,1.6694 -0.0239,1.73014 -0.79375,2.02074 -1.29363,0.48829 -0.91867,0.71276 1.19062,0.71276 1.09141,0 1.98438,-0.10616 1.98438,-0.2359 z m 4.49791,-0.008 c 0,-0.13396 -0.35718,-0.32202 -0.79375,-0.4179 l -0.79375,-0.17434 v -2.05464 c 0,-2.28251 0.28955,-2.78987 1.75999,-3.08396 1.33641,-0.26728 1.6796,0.34069 1.6796,2.97536 0,2.03231 -0.0522,2.26848 -0.52917,2.39321 -1.09508,0.28637 -0.46725,0.60583 1.19063,0.60583 1.65787,0 2.2857,-0.31946 1.19062,-0.60583 -0.48278,-0.12625 -0.52917,-0.3609 -0.52917,-2.6767 0,-2.18553 -0.0736,-2.61185 -0.52916,-3.06747 -0.68993,-0.68994 -2.24444,-0.69128 -3.37344,-0.003 l -0.8599,0.52428 v -0.81784 -0.81784 l -0.76761,0.82173 c -0.42219,0.45195 -0.89844,0.82173 -1.05833,0.82173 -0.49462,0 -0.32008,0.48419 0.23844,0.66146 0.47044,0.14931 0.52917,0.40032 0.52917,2.26175 0,2.01272 -0.0256,2.10022 -0.66146,2.25981 -1.2878,0.32322 -0.63528,0.63782 1.32292,0.63782 1.09141,0 1.98437,-0.10961 1.98437,-0.24356 z m 12.96459,0.008 c 0,-0.12975 -0.29766,-0.31061 -0.66146,-0.40192 -0.63505,-0.15939 -0.66146,-0.24863 -0.66146,-2.23663 0,-2.23798 0.25913,-2.7391 1.5875,-3.06986 1.2614,-0.31409 1.70225,0.35275 1.8106,2.73882 0.0946,2.08215 0.0804,2.14078 -0.59227,2.44726 -1.14689,0.52255 -0.78542,0.75823 1.16292,0.75823 1.90527,0 2.2983,-0.20792 1.25677,-0.66486 -0.53163,-0.23324 -0.60351,-0.47761 -0.67209,-2.28414 -0.0729,-1.92031 -0.0409,-2.0512 0.631,-2.57968 0.84352,-0.66352 1.37388,-0.69901 2.16503,-0.14486 0.52854,0.3702 0.58804,0.63743 0.58804,2.64079 0,2.15685 -0.0214,2.23428 -0.66146,2.39493 -1.25679,0.31544 -0.655,0.63782 1.19063,0.63782 1.05833,0 1.85208,-0.11339 1.85208,-0.26458 0,-0.14553 -0.22696,-0.26459 -0.50437,-0.26459 -0.45601,0 -0.51308,-0.2511 -0.59532,-2.61868 -0.0736,-2.11967 -0.18698,-2.72471 -0.59497,-3.17501 -0.62838,-0.69356 -2.26687,-0.74679 -3.34703,-0.10872 -0.71167,0.42039 -0.78774,0.42039 -1.25227,0 -0.70189,-0.6352 -2.45967,-0.58196 -3.32764,0.10078 l -0.69715,0.54837 v -0.81295 c 0,-0.98102 -0.20129,-1.01001 -1.01997,-0.14692 -0.34269,0.36128 -0.72964,0.65688 -0.85989,0.65688 -0.13023,0 -0.23681,0.11906 -0.23681,0.26459 0,0.14552 0.1786,0.26458 0.39688,0.26458 0.32369,0 0.39687,0.44372 0.39687,2.40602 0,2.1835 -0.0489,2.41882 -0.52916,2.5444 -1.12588,0.29442 -0.44588,0.60583 1.32291,0.60583 1.01865,0 1.85209,-0.10616 1.85209,-0.2359 z m 13.49375,0 c 0,-0.12975 -0.29766,-0.31061 -0.66146,-0.40192 -0.65786,-0.16511 -0.66146,-0.18269 -0.66146,-3.22573 0,-1.68284 -0.0893,-3.01714 -0.19844,-2.9651 -0.10914,0.052 -0.58465,0.32985 -1.05666,0.61736 -0.90789,0.55301 -1.10445,0.91962 -0.493,0.91962 0.52774,0 0.68977,0.60092 0.68977,2.55817 0,1.6694 -0.0238,1.73014 -0.79375,2.02074 -1.29363,0.48829 -0.91866,0.71276 1.19062,0.71276 1.09141,0 1.98438,-0.10616 1.98438,-0.2359 z m 4.49791,-0.008 c 0,-0.13396 -0.35718,-0.32202 -0.79375,-0.4179 l -0.79375,-0.17434 v -2.05464 c 0,-2.28251 0.28954,-2.78987 1.75999,-3.08396 1.33641,-0.26728 1.6796,0.34069 1.6796,2.97536 0,2.03231 -0.0522,2.26848 -0.52917,2.39321 -1.09508,0.28637 -0.46725,0.60583 1.19063,0.60583 1.65787,0 2.2857,-0.31946 1.19062,-0.60583 -0.48278,-0.12625 -0.52917,-0.3609 -0.52917,-2.6767 0,-2.18553 -0.0736,-2.61185 -0.52916,-3.06747 -0.68993,-0.68994 -2.24444,-0.69128 -3.37344,-0.003 l -0.8599,0.52428 v -0.81784 -0.81784 l -0.76761,0.82173 c -0.42219,0.45195 -0.89844,0.82173 -1.05833,0.82173 -0.49464,0 -0.32009,0.48419 0.23844,0.66146 0.47043,0.14931 0.52917,0.40032 0.52917,2.26175 0,2.01272 -0.0257,2.10022 -0.66146,2.25981 -1.2878,0.32322 -0.63529,0.63782 1.32292,0.63782 1.09141,0 1.98437,-0.10961 1.98437,-0.24356 z m 18.25625,0.0128 c 0,-0.12692 -0.47625,-0.30692 -1.05833,-0.4 l -1.05833,-0.16924 0.008,-1.9151 c 0.0101,-2.31473 0.37722,-2.97282 1.51832,-2.7222 0.87712,0.19265 1.49452,-0.31602 1.22766,-1.01145 -0.23585,-0.61457 -1.4188,-0.53456 -2.14201,0.14488 l -0.61238,0.57529 v -0.83988 c 0,-0.87383 -0.43072,-1.13969 -0.70183,-0.4332 -0.0858,0.22366 -0.4988,0.5839 -0.91774,0.80054 -0.89656,0.46364 -0.97036,0.79318 -0.22145,0.98901 0.4976,0.13013 0.53411,0.31523 0.46302,2.34597 -0.072,2.05765 -0.11692,2.21033 -0.67252,2.28924 -0.32742,0.0465 -0.59531,0.19533 -0.59531,0.33073 0,0.1354 1.07156,0.24618 2.38125,0.24618 1.30968,0 2.38125,-0.10385 2.38125,-0.23077 z m -220.979524,-9.51019 c -0.110863,-0.58496 -1.413166,-0.74756 -1.622304,-0.20255 -0.08517,0.22194 0.02695,0.58533 0.249159,0.80753 0.506957,0.50696 1.500891,0.0691 1.373145,-0.60498 z m 37.041664,0 c -0.11086,-0.58496 -1.41316,-0.74756 -1.6223,-0.20255 -0.0852,0.22194 0.0269,0.58533 0.24916,0.80753 0.50696,0.50696 1.50089,0.0691 1.37314,-0.60498 z m 13.49375,0 c -0.11086,-0.58496 -1.41316,-0.74756 -1.6223,-0.20255 -0.0852,0.22194 0.0269,0.58533 0.24916,0.80753 0.50696,0.50696 1.50089,0.0691 1.37314,-0.60498 z m 93.92709,0 c -0.11087,-0.58496 -1.41317,-0.74756 -1.62231,-0.20255 -0.0852,0.22194 0.027,0.58533 0.24916,0.80753 0.50696,0.50696 1.50089,0.0691 1.37315,-0.60498 z m 21.69583,0 c -0.11086,-0.58496 -1.41317,-0.74756 -1.6223,-0.20255 -0.0852,0.22194 0.0269,0.58533 0.24915,0.80753 0.50696,0.50696 1.50089,0.0691 1.37315,-0.60498 z m 30.95625,0 c -0.11086,-0.58496 -1.41316,-0.74756 -1.62232,-0.20255 -0.0852,0.22194 0.027,0.58533 0.24916,0.80753 0.50697,0.50696 1.5009,0.0691 1.37316,-0.60498 z m -11.47752,-30.67234 c 1.19202,-13.565627 2.04584,-24.713637 1.98438,-24.765837 -0.0614,-0.0522 -12.11495,-1.11228 -26.7856,-2.35574 -14.67064,-1.24346 -26.74213,-2.32908 -26.82553,-2.41248 -0.0834,-0.0834 0.71763,-3.9655 1.78008,-8.62687 1.06245,-4.66137 1.88253,-8.52072 1.82241,-8.57634 -0.20671,-0.19122 -17.1948,-3.93411 -17.31417,-3.81474 -0.0657,0.0657 -1.09274,4.3971 -2.28233,9.62535 -1.18959,5.22825 -2.25045,9.60699 -2.35747,9.73053 -0.10702,0.12354 -9.61835,-0.57908 -21.13629,-1.56138 -12.31295,-1.0501 -21.02899,-1.68775 -21.15352,-1.54754 -0.22509,0.25342 -4.42921,49.250037 -4.23962,49.410337 0.20658,0.17466 111.75146,9.65216 113.08867,9.60866 l 1.23939,0.09064 z m -59.90754,17.97846 c -29.90453,-2.55523 -54.40427,-4.66715 -54.44387,-4.69315 -0.12706,-0.0834 3.78761,-45.334867 3.9346,-45.481847 0.16923,-0.16924 39.63343,3.1732 39.83398,3.37376 0.0765,0.0765 -0.01,0.80391 -0.19152,1.61646 -0.18184,0.81255 -0.28175,1.52231 -0.22201,1.57723 0.12623,0.11606 16.74707,3.86563 17.13528,3.86563 0.14306,0 0.52091,-1.16086 0.83966,-2.57969 0.31875,-1.41883 0.67451,-2.68159 0.79058,-2.80615 0.16045,-0.17219 51.72247,3.99203 52.05797,4.20427 0.0918,0.0581 -3.6313,44.248557 -3.79439,45.036257 -0.0937,0.45258 -0.29652,0.58786 -0.84585,0.56421 -0.3974,-0.0171 -25.18989,-2.12175 -55.09443,-4.67698 z m 50.73386,-2.07559 c 2.16498,-0.15679 2.18281,-0.16401 2.18281,-0.88368 0,-0.67698 -0.092,-0.7365 -1.37308,-0.88823 -0.7552,-0.0894 -1.54101,-0.33054 -1.74625,-0.53577 -0.32115,-0.32116 -0.2032,-2.59895 0.84637,-16.344547 0.67078,-8.78426 1.21844,-16.19614 1.21709,-16.47084 -0.003,-0.4553 -0.13695,-0.4813 -1.52382,-0.29415 -0.83674,0.11292 -2.94883,0.27814 -4.69355,0.36716 -2.70512,0.13802 -3.18492,0.22848 -3.25853,0.61436 -0.0635,0.33269 0.36733,0.65821 1.62684,1.22929 0.94223,0.42723 1.85328,1.03865 2.02457,1.35871 0.29525,0.55168 0.13925,4.11935 -0.4173,9.54293 l -0.15092,1.47094 -1.23665,-0.6029 c -6.05707,-2.95299 -13.53876,0.75347 -15.27838,7.568977 -0.65217,2.55509 -0.43995,6.29171 0.46926,8.26235 1.57793,3.42007 4.08545,5.0626 7.75164,5.07764 1.80208,0.007 2.43126,-0.12101 4.23334,-0.86398 1.16416,-0.47997 2.2579,-0.93027 2.43053,-1.00067 0.23071,-0.0941 0.27253,0.2725 0.15784,1.38372 l -0.15602,1.51172 2.3557,-0.17248 c 1.29564,-0.0949 3.33796,-0.24361 4.53851,-0.33055 z m -12.00992,-3.52289 c -2.02853,-0.48373 -3.69407,-2.37198 -4.20017,-4.76182 -0.28366,-1.33947 -0.19591,-4.53031 0.16515,-6.00536 0.61162,-2.49865 2.07543,-4.673327 3.72867,-5.539457 1.03733,-0.54344 3.03204,-0.46505 4.34548,0.17077 2.2623,1.09516 2.52352,2.642467 1.84667,10.938227 -0.3864,4.73587 -0.36558,4.69419 -2.58314,5.16978 -1.458,0.31268 -2.08605,0.31798 -3.30266,0.0279 z m -13.05935,0.66005 c 0,-0.52382 -0.20223,-0.66797 -1.30981,-0.93368 -0.7204,-0.17282 -1.4608,-0.49614 -1.64533,-0.71849 -0.27276,-0.32864 -0.12051,-3.23222 0.81385,-15.521027 1.45184,-19.09487 1.41345,-17.50311 0.4215,-17.47752 -0.684,0.0177 -5.4303,0.71839 -7.2099,1.06446 -0.40753,0.0793 -0.59335,0.30196 -0.58908,0.70604 0.005,0.45169 0.3154,0.7261 1.32309,1.1688 0.83998,0.36902 1.40546,0.81162 1.56157,1.22221 0.30537,0.80319 -1.72843,27.652907 -2.13143,28.138497 -0.15046,0.18129 -0.82938,0.40218 -1.5087,0.49087 -1.71868,0.22437 -2.42576,0.56147 -2.42576,1.15647 0,0.46023 0.27443,0.52643 2.84427,0.68614 1.56435,0.0972 4.33255,0.32274 6.15156,0.50117 1.81901,0.17842 3.39659,0.28191 3.50573,0.22996 0.10914,-0.0519 0.19844,-0.3732 0.19844,-0.7139 z m -14.4481,-0.56158 c 0.28201,-0.73492 0.18525,-0.85159 -1.09617,-1.32175 -2.18832,-0.8029 -2.0861,-0.13437 -1.42134,-9.29646 0.32505,-4.480057 0.65693,-8.693817 0.73751,-9.363897 0.13367,-1.11172 0.0925,-1.23246 -0.47069,-1.37973 -0.41223,-0.1078 -0.79528,0.005 -1.15347,0.33965 -0.87832,0.82061 -3.33773,2.00205 -5.23907,2.51672 -1.48366,0.4016 -1.77847,0.57413 -1.77327,1.03773 0.005,0.40997 0.34939,0.70676 1.31246,1.12976 0.99287,0.4361 1.35103,0.75226 1.49301,1.31797 0.31536,1.2565 -0.58219,11.734897 -1.04481,12.197517 -0.21771,0.21771 -1.15081,0.53091 -2.07355,0.696 -1.53149,0.274 -1.67772,0.35764 -1.67772,0.95956 v 0.6594 l 4.10104,0.19335 c 2.25557,0.10635 4.81542,0.30019 5.68854,0.43076 2.32166,0.34719 2.44161,0.34185 2.61753,-0.11658 z m -14.25919,-1.39817 c 0,-0.49783 -0.23819,-0.71458 -1.16301,-1.05833 -0.63965,-0.23775 -1.28877,-0.63253 -1.44248,-0.87728 -0.19912,-0.31703 -0.14206,-2.3128 0.19842,-6.94023 0.5337,-7.253527 0.43929,-8.318427 -0.90167,-10.169567 -1.15233,-1.59074 -2.82395,-2.27808 -5.55481,-2.28404 -2.65071,-0.006 -3.96018,0.51582 -6.08029,2.42198 -0.73042,0.65671 -1.32713,1.09369 -1.32601,0.97107 0.001,-0.12263 0.29785,-3.97343 0.65943,-8.55734 0.36158,-4.58391 0.65832,-8.53471 0.65943,-8.77957 0.003,-0.73406 -0.92968,-0.80585 -2.83075,-0.21781 -0.98859,0.30579 -2.72016,0.62748 -3.84795,0.71486 -1.88225,0.14583 -2.05052,0.20622 -2.05052,0.73588 0,0.43179 0.32607,0.72974 1.29555,1.18382 0.71256,0.33375 1.43865,0.87419 1.61354,1.20098 0.25467,0.47585 0.11101,3.32197 -0.72141,14.2919 -1.15896,15.273267 -0.93684,14.237537 -3.12361,14.565457 -0.92976,0.13943 -1.1512,0.28514 -1.25448,0.82546 -0.069,0.36096 0.009,0.69631 0.17259,0.74541 0.16391,0.0491 2.02443,0.16067 4.13448,0.24794 2.11006,0.0873 4.66132,0.27835 5.66948,0.42464 1.42714,0.20707 1.8811,0.1915 2.05019,-0.0703 0.42755,-0.66211 0.061,-1.06482 -1.55786,-1.71177 -0.98923,-0.39532 -1.70613,-0.85439 -1.80099,-1.15325 -0.2115,-0.66638 0.61371,-10.769337 0.92754,-11.355737 0.3977,-0.7431 2.12807,-2.15177 3.2933,-2.68102 1.28485,-0.58357 2.50533,-0.63015 3.66382,-0.13981 2.11393,0.89473 2.27771,1.83235 1.66825,9.550567 -0.4625,5.85706 -0.48291,5.91252 -2.34528,6.37212 -0.91176,0.22501 -1.13207,0.4 -1.19713,0.9508 l -0.0797,0.67503 3.65159,0.1972 c 2.00839,0.10847 4.24692,0.29223 4.97452,0.40836 2.11223,0.33713 2.64584,0.23884 2.64584,-0.48737 z m -32.05758,-2.21964 c 2.60097,-1.20929 4.31413,-2.92287 4.03481,-4.03577 l -0.16201,-0.64549 -1.78261,0.98535 c -1.59434,0.88128 -1.97986,0.98427 -3.65019,0.97504 -3.17642,-0.0175 -5.52602,-1.51488 -6.8343,-4.35531 -0.76924,-1.6701 -0.73586,-5.560877 0.0667,-7.780027 0.98571,-2.72547 2.68421,-4.38778 4.48535,-4.38981 1.18444,-0.001 1.7525,0.33196 3.66015,2.14753 2.25022,2.14161 3.14354,2.41458 4.39225,1.34213 0.589,-0.50586 0.61827,-2.35752 0.0501,-3.16871 -1.38988,-1.98432 -7.30318,-2.85105 -11.05301,-1.62007 -6.14857,2.01843 -9.22319,9.42499 -6.52528,15.718957 1.002,2.33756 3.61962,4.54671 6.29028,5.30871 2.04383,0.58314 5.20208,0.36629 7.02774,-0.48253 z m 43.9279,-23.315987 c 2.42513,-1.01329 2.68616,-4.15848 0.44146,-5.31926 -3.04792,-1.57614 -5.96896,2.29744 -3.55376,4.71264 0.58486,0.58486 0.92914,0.74333 2.03225,0.9354 0.11381,0.0198 0.59983,-0.12814 1.08005,-0.32878 z m -11.07249,-11.18413 c -3.49025,-0.79837 -6.38331,-1.48897 -6.42902,-1.53468 -0.0457,-0.0457 -0.005,-0.39481 0.0907,-0.77579 0.13473,-0.53681 0.33734,-0.69268 0.90041,-0.69268 1.02698,0 13.04663,1.04237 13.14415,1.13988 0.0443,0.0443 -0.0238,0.49053 -0.15123,0.99167 -0.12746,0.50114 -0.30509,1.23858 -0.39475,1.63877 -0.0896,0.40018 -0.30957,0.71788 -0.48869,0.706 -0.17913,-0.0119 -3.18135,-0.67481 -6.67161,-1.47317 z m 0.0134,-4.62641 c -3.04633,-0.27642 -5.56967,-0.53346 -5.60741,-0.57121 -0.0949,-0.0949 3.79338,-17.13153 3.94444,-17.28259 0.11272,-0.11271 13.18403,2.74926 13.35995,2.92518 0.0433,0.0433 -0.69955,3.47969 -1.6507,7.6365 -0.95115,4.15682 -1.72936,7.62517 -1.72936,7.70745 0,0.24116 -2.40603,0.12101 -8.31692,-0.41533 z M 83.458869,-77.781203 c -0.07096,-0.60132 -0.250822,-0.68399 -2.188292,-1.00589 -3.106367,-0.5161 -3.048402,-0.41413 -3.048402,-5.36289 v -4.1638 l 0.939572,0.47902 c 0.516766,0.26346 1.771195,0.61929 2.787621,0.79073 7.660759,1.29216 13.905941,-5.32944 12.696411,-13.461677 -0.53202,-3.57709 -1.987655,-5.90894 -4.565284,-7.31337 -1.164894,-0.63469 -1.799111,-0.7856 -3.68224,-0.87615 -2.742795,-0.1319 -4.512998,0.3178 -6.545527,1.66282 -0.776687,0.51398 -1.461297,0.9345 -1.521354,0.9345 -0.06006,0 -0.109199,-1.07157 -0.109199,-2.38125 0,-2.72702 -0.223039,-2.92996 -1.866826,-1.6986 -1.203217,0.90133 -3.542353,2.08408 -4.961803,2.50886 -0.94493,0.28278 -1.924031,1.15661 -1.593329,1.42202 0.04817,0.0387 0.741606,0.17729 1.540968,0.30806 1.326817,0.21708 1.468096,0.3069 1.62234,1.03153 0.220705,1.03686 0.281557,23.893277 0.06647,24.968687 -0.169643,0.84821 -0.253724,0.89212 -2.81147,1.46815 -0.527352,0.11877 -0.727607,0.32633 -0.727612,0.75414 l -1.1e-5,0.59027 h 7.02264 7.022639 z m -1.73876,-11.40401 c -1.535943,-0.2971 -2.559656,-1.08467 -3.070966,-2.36256 -0.345072,-0.86242 -0.426968,-2.12394 -0.426968,-6.57699 0,-6.145677 -0.09867,-5.804927 1.994156,-6.886607 1.836008,-0.94893 3.318799,-1.00309 4.996056,-0.18249 2.653914,1.29844 3.964054,3.96953 3.968935,8.091777 0.0033,2.75376 -0.598064,4.68584 -1.910511,6.13856 -1.518605,1.68092 -3.226147,2.22797 -5.550702,1.77831 z m 41.499941,11.46386 c 1.00927,-0.51121 1.6852,-1.09973 2.27272,-1.97883 0.45992,-0.68817 2.95813,-6.57544 5.55157,-13.0828 2.59343,-6.50737 4.95812,-12.191827 5.25484,-12.632137 0.37381,-0.55469 0.92375,-0.90909 1.79062,-1.15393 1.00377,-0.28351 1.25113,-0.46803 1.25113,-0.9333 0,-0.57538 -0.0374,-0.57994 -4.7625,-0.57994 -4.69705,0 -4.7625,0.008 -4.7625,0.56893 0,0.46854 0.24508,0.62643 1.38906,0.89486 1.94814,0.45712 2.31352,0.69624 2.32569,1.52208 0.0103,0.69978 -4.24522,12.485507 -4.5085,12.486317 -0.12373,2.7e-4 -4.7859,-12.305767 -4.98697,-13.163487 -0.12319,-0.52545 0.43317,-0.8445 1.48124,-0.84944 0.76073,-0.004 0.85988,-0.088 0.85976,-0.73165 l -1.3e-4,-0.72761 h -5.55622 c -5.50417,0 -5.55621,0.005 -5.55611,0.56725 7e-5,0.41235 0.34238,0.73745 1.25361,1.19062 l 1.25353,0.62338 3.94473,9.392707 c 2.40308,5.72191 3.99198,9.85877 4.06564,10.58526 0.14749,1.45484 -0.27297,3.12439 -1.02887,4.08537 -0.55672,0.70774 -0.59162,0.71447 -2.76713,0.53325 -2.20296,-0.18351 -2.20342,-0.18341 -3.00715,0.62032 -1.04162,1.04162 -1.08271,2.1743 -0.10671,2.94201 0.99317,0.78123 2.58168,0.71576 4.34865,-0.17923 z m -14.14577,-9.45244 c 3.07419,-0.91293 4.93644,-3.34298 4.95285,-6.46297 0.0185,-3.51771 -1.69728,-5.32136 -6.5685,-6.904897 -3.67913,-1.19602 -4.6302,-1.97144 -4.6302,-3.77507 0,-1.35436 0.86376,-2.20907 2.47693,-2.45098 1.44972,-0.2174 2.37364,-0.0211 3.42537,0.72781 0.89614,0.63811 2.29978,2.73362 2.29978,3.43337 0,0.35722 0.20599,0.47737 0.81844,0.47737 h 0.81844 l -0.18438,-2.57969 c -0.10141,-1.41883 -0.32088,-2.72297 -0.48771,-2.89809 -0.50903,-0.53432 -3.34875,-1.13681 -5.35813,-1.13681 -5.30006,0 -8.557671,2.70071 -8.257821,6.84612 0.21003,2.903627 1.781051,4.403707 6.133901,5.856907 3.94635,1.3175 5.10088,2.12643 5.36592,3.75966 0.335,2.06436 -1.37695,3.643 -3.95243,3.64466 -2.66152,0.002 -4.54514,-1.41538 -5.75215,-4.3275 -0.512001,-1.2353 -0.729471,-1.49235 -1.262601,-1.49235 h -0.64407 l 0.1724,2.31511 c 0.32152,4.31775 0.28075,4.21091 1.799411,4.71533 2.87749,0.95575 6.15045,1.04912 8.83455,0.25202 z"
       id="path847"
       sodipodi:nodetypes="cccccccccssscssscssssssssssscccsssssssssssscsssssssssssssssscssssssscsssscssscsssssssssssssssssssscssssssssssscssssssssssscsssssssssssssssssssssssssssssssssssscssssscssscssscssccscssssscsssssssssscsssscsssssssssssssssssssssssssssssssssssscsscssssscssssscsscsssscsssssssssscssssscsccsssssssssssssscssssscssssssscssssssssscscssssssssccccssssssccsscssssscsssssscsssssscscssssssscccccssssssccsssssssssscsssssssccssssssscssssscsssscssssssssssscsscccccssccsscssssscssssssssssssssssssssssscscssssssssscccssssssccssssssssssssssssssssscssssssssssssssssssscscssssssssscccsssssscccsccssscssssssssccsssssscssscssscssscssscsssssssssssssscssssscssssssssssssscsssssscssscsssccsssssssssssssscccsssssssssssssssscssssscsssssssscscscsssssssscsscsssssssscsssssscscsscssssssssssssscscssscsccsssssssssscsssssssssscssssscccsssssscsssssssssssscscscssscssssssssssssssscsssssscsscsss" />
  </g>
</svg>
